<svg width="37" height="37" viewBox="0 0 37 37" fill="none" xmlns="http://www.w3.org/2000/svg">
<circle cx="18.5" cy="18.5" r="18" stroke="#B78433"/>
<path d="M10.3755 14.3172L11.7996 14.0953C12.7477 13.9475 13.6461 13.5727 14.4181 13.0028L17.6988 10.581C18.1689 10.2339 18.8082 10.2261 19.2866 10.5617C19.6495 10.8161 19.8655 11.2314 19.8655 11.6746V25.7333C19.8655 26.1819 19.6468 26.6024 19.2794 26.8601C18.8034 27.1939 18.169 27.1926 17.6944 26.8568L14.7838 24.7977C13.7662 24.0778 12.6187 23.5617 11.4048 23.2779L9.81266 22.9057C9.35212 22.798 8.93796 22.5462 8.63049 22.1868C8.31118 21.8136 8.12458 21.345 8.09989 20.8545L8 18.8696V17.0916C8 16.5673 8.14681 16.0534 8.42382 15.6082C8.85552 14.9144 9.56805 14.4431 10.3755 14.3172Z" stroke="white"/>
<path d="M22.8438 16.334V16.334C24.6957 17.6773 24.7333 20.4245 22.9189 21.818L22.8438 21.8757" stroke="white" stroke-linecap="round"/>
<path d="M25.8125 13.166V13.166C29.0233 16.1205 29.0588 21.1768 25.8899 24.1761L25.8125 24.2493" stroke="white" stroke-linecap="round"/>
</svg>
