<svg width="37" height="37" viewBox="0 0 37 37" fill="none" xmlns="http://www.w3.org/2000/svg">
<circle cx="18.5" cy="18.5" r="18" fill="#FFF4D8" stroke="#080026"/>
<circle cx="18.5" cy="18.5" r="18" fill="#FFF4D8" stroke="#080026"/>
<path d="M9.95847 14.3172L11.3826 14.0953C12.3307 13.9475 13.2291 13.5727 14.0011 13.0028L17.2818 10.581C17.7519 10.2339 18.3912 10.2261 18.8696 10.5617C19.2325 10.8161 19.4485 11.2314 19.4485 11.6746V25.7333C19.4485 26.1819 19.2298 26.6024 18.8624 26.8601C18.3864 27.1939 17.752 27.1926 17.2774 26.8568L14.3668 24.7977C13.3492 24.0778 12.2017 23.5617 10.9879 23.2779L9.39567 22.9057C8.93512 22.798 8.52097 22.5462 8.2135 22.1868C7.89418 21.8136 7.70759 21.345 7.6829 20.8545L7.58301 18.8696V17.0916C7.58301 16.5673 7.72982 16.0534 8.00683 15.6082C8.43853 14.9144 9.15106 14.4431 9.95847 14.3172Z" fill="#FFFDF6" stroke="#080026" stroke-width="1.75"/>
<path d="M22.4268 16.3333V16.3333C24.2787 17.6765 24.3163 20.4237 22.5019 21.8172L22.4268 21.8749" stroke="#080026" stroke-width="1.75" stroke-linecap="round"/>
<path d="M25.3955 13.1667V13.1667C28.6063 16.1213 28.6418 21.1775 25.4729 24.1769L25.3955 24.2501" stroke="#080026" stroke-width="1.75" stroke-linecap="round"/>
</svg>
