<svg width="37" height="37" viewBox="0 0 37 37" fill="none" xmlns="http://www.w3.org/2000/svg">
<circle cx="18.5" cy="18.5" r="18.5" fill="#3A3449"/>
<path d="M31 18.6549C31 18.8538 30.9267 19.0446 30.7962 19.1852C30.6658 19.3258 30.4888 19.4049 30.3043 19.4049L9.37533 19.25L14.4492 24.719C14.5139 24.7887 14.5651 24.8714 14.6001 24.9625C14.6351 25.0535 14.6531 25.1511 14.6531 25.2496C14.6531 25.3482 14.6351 25.4457 14.6001 25.5368C14.5651 25.6278 14.5139 25.7105 14.4492 25.7802C14.3846 25.8499 14.3079 25.9052 14.2234 25.9429C14.139 25.9806 14.0485 26 13.9571 26C13.8657 26 13.7752 25.9806 13.6907 25.9429C13.6063 25.9052 13.5295 25.8499 13.4649 25.7802L7.20403 19.0306C7.13935 18.9609 7.08804 18.8782 7.05303 18.7872C7.01802 18.6961 7 18.5986 7 18.5C7 18.4014 7.01802 18.3039 7.05303 18.2128C7.08804 18.1218 7.13935 18.0391 7.20403 17.9694L13.4649 11.2198C13.5954 11.0791 13.7725 11 13.9571 11C14.1417 11 14.3187 11.0791 14.4492 11.2198C14.5798 11.3605 14.6531 11.5514 14.6531 11.7504C14.6531 11.9494 14.5798 12.1402 14.4492 12.281L9.37533 17.75L30.3043 17.9049C30.4888 17.9049 30.6658 17.984 30.7962 18.1246C30.9267 18.2652 31 18.456 31 18.6549Z" fill="#FFFEF9"/>
</svg>
