<svg width="309" height="117" viewBox="0 0 309 117" fill="none" xmlns="http://www.w3.org/2000/svg">
<path d="M65.4309 99.9649V79.0403H70.5018V95.5629H78.5741V99.9649H65.4309Z" fill="black"/>
<path d="M159.929 99.9649L158.311 95.8594H150.233L148.7 99.9649H143.218L151.972 79.0403H156.863L165.526 99.9649H159.929ZM154.327 84.6282L151.676 91.8091H156.923L154.327 84.6282Z" fill="black"/>
<path d="M247.668 93.8744C247.668 95.0151 247.443 95.9799 246.992 96.7538C246.541 97.5327 245.939 98.1558 245.193 98.6282C244.446 99.1005 243.594 99.4422 242.642 99.6483C241.69 99.8543 240.713 99.9598 239.711 99.9598H231.398V79.0352H239.706C240.513 79.0352 241.334 79.1206 242.181 79.2864C243.023 79.4523 243.79 79.7387 244.481 80.1457C245.168 80.5478 245.729 81.0955 246.16 81.7839C246.591 82.4724 246.806 83.3518 246.806 84.4121C246.806 85.5729 246.491 86.5327 245.864 87.2915C245.233 88.0503 244.411 88.598 243.389 88.9297V88.99C243.98 89.0905 244.531 89.2714 245.052 89.5377C245.574 89.804 246.025 90.1458 246.41 90.5578C246.796 90.9699 247.097 91.4523 247.322 92.0051C247.553 92.5679 247.668 93.186 247.668 93.8744ZM241.951 85.1005C241.951 84.392 241.68 83.8744 241.139 83.5478C240.598 83.2211 239.796 83.0603 238.739 83.0603H236.264V87.3769H238.974C239.916 87.3769 240.648 87.186 241.169 86.799C241.69 86.4121 241.951 85.8493 241.951 85.1005ZM242.627 93.402C242.627 92.5377 242.301 91.9347 241.655 91.598C241.009 91.2613 240.142 91.0955 239.065 91.0955H236.264V95.8845H239.095C239.485 95.8845 239.896 95.8493 240.317 95.7789C240.738 95.7086 241.124 95.588 241.465 95.4071C241.805 95.2312 242.086 94.9799 242.302 94.6533C242.517 94.3367 242.627 93.9146 242.627 93.402Z" fill="black"/>
<path d="M247.453 0H238.699V69.7488H247.453V0Z" fill="black"/>
<path d="M202.275 61.0754H230.215V69.7488H193.527V0H202.275V61.0754Z" fill="black"/>
<path fill-rule="evenodd" clip-rule="evenodd" d="M54.6727 117C109.401 117 135.805 60.0139 139.494 51.3736L169.518 51.401C173.251 60.134 199.657 117 254.327 117C305.252 117 309 74.7185 309 67.407C309 49.8994 296.162 34.6079 278.329 35.1908C260.937 35.7587 256.332 49.3567 256.332 55.9145C256.332 62.8492 260.786 69.7738 268.758 69.7738C276.034 69.7738 279.732 64.422 279.306 59.7436C279.106 57.5627 277.547 53.9999 273.243 53.9999C270.337 53.9999 269.219 56.4974 269.275 57.8894C269.335 59.4522 270.607 60.5929 271.715 60.5929C272.346 60.5929 273.504 60.3215 273.494 59.025C273.484 57.7286 272.456 57.814 272.456 57.814C272.456 57.814 273.333 57.9044 273.403 58.7386C273.449 59.3115 273.213 60.3818 271.82 60.3818C269.986 60.3818 269.475 58.5577 269.53 57.6632C269.635 55.8843 271.529 54.3416 273.288 54.3969C278.319 54.5476 279.061 59.4321 278.214 62.1758C276.635 67.2813 271.289 69.211 267.15 68.4974C263.968 67.9497 257.634 65.2713 257.634 56.3366C257.634 40.3517 272.366 36.824 279.466 36.6833C291.547 36.4421 307.061 47.221 307.061 67.3014C307.061 72.7135 305.001 113.236 253.901 113.236C208.472 113.236 182.529 60.5175 178.755 52.2865C174.98 44.0554 170.542 31.5628 167.992 24.6583C165.717 18.4975 159.458 0 159.458 0H149.797C149.797 0 142.998 19.4272 140.583 25.8995C138.446 31.6344 132.261 47.3233 130.671 51.3497C129.261 54.5828 103.017 113.236 55.0986 113.236C3.9986 113.236 1.94418 72.7135 1.94418 67.3015C1.94418 47.221 17.4576 36.4421 29.5386 36.6833C36.6389 36.824 51.3706 40.3517 51.3706 56.3366C51.3706 65.2713 45.0369 67.9497 41.8551 68.4974C37.7162 69.211 32.3697 67.2814 30.7913 62.1758C29.9444 59.4321 30.686 54.5477 35.7169 54.3969C37.4757 54.3416 39.3697 55.8844 39.475 57.6633C39.5301 58.5577 39.019 60.3819 37.185 60.3819C35.792 60.3819 35.5565 59.3115 35.6016 58.7386C35.6718 57.9045 36.5487 57.814 36.5487 57.814C36.5487 57.814 35.5215 57.7286 35.5114 59.0251C35.5014 60.3216 36.6589 60.5929 37.2903 60.5929C38.3976 60.5929 39.6704 59.4522 39.7305 57.8894C39.7856 56.4974 38.6682 53.9999 35.762 53.9999C31.4577 53.9999 29.8993 57.5628 29.6989 59.7437C29.273 64.4221 32.971 69.7738 40.2466 69.7738C48.2188 69.7738 52.6734 62.8492 52.6734 55.9145C52.6734 49.3567 48.0685 35.7587 30.676 35.1909C12.8376 34.5979 0 49.8894 0 67.3969C0 74.7186 3.74807 117 54.6727 117ZM143.218 42.8041H165.421L154.367 11.3317L143.218 42.8041Z" fill="black"/>
<path d="M65.511 0H86.9973C91.0059 0 95.0145 0.658292 99.0232 1.96985C103.032 3.28644 106.655 5.35176 109.897 8.17589C113.139 11 115.759 14.6131 117.764 19.0101C119.768 23.4121 120.77 28.6985 120.77 34.8694C120.77 40.8443 119.768 46.0201 117.764 50.387C115.759 54.7538 113.139 58.3669 109.897 61.2212C106.655 64.0805 103.032 66.2111 99.0232 67.6232C95.0145 69.0352 91.0059 69.7388 86.9973 69.7388H65.511V0ZM74.2649 61.1759H85.2285C89.0016 61.1759 92.4891 60.583 95.706 59.4021C98.9179 58.2212 101.689 56.5126 104.014 54.2815C106.344 52.0503 108.153 49.2915 109.451 46.0051C110.748 42.7237 111.395 39.0101 111.395 34.8744C111.395 30.5377 110.743 26.7337 109.451 23.4473C108.153 20.1658 106.339 17.4221 104.014 15.2211C101.684 13.0201 98.9129 11.3467 95.706 10.196C92.4941 9.04523 89.0016 8.47237 85.2285 8.47237H74.2649V61.1759Z" fill="black"/>
</svg>
