<svg width="43" height="44" viewBox="0 0 43 44" fill="none" xmlns="http://www.w3.org/2000/svg">
<rect x="0.5" y="4.5" width="38" height="39" rx="1.5" fill="#080026" stroke="#080026"/>
<rect x="2.5" y="0.5" width="40" height="41" rx="1.5" fill="white" stroke="#080026"/>
<path d="M27.1022 11.7205C27.3173 11.375 27.5726 11.101 27.8536 10.914C28.1346 10.7271 28.4358 10.6309 28.7399 10.6309C29.0441 10.6309 29.3453 10.7271 29.6263 10.914C29.9073 11.101 30.1626 11.375 30.3777 11.7205C30.5927 12.066 30.7633 12.4761 30.8797 12.9274C30.9961 13.3788 31.056 13.8626 31.056 14.3511C31.056 14.8397 30.9961 15.3234 30.8797 15.7748C30.7633 16.2261 30.5927 16.6363 30.3777 16.9817L19.3231 34.7383L14.8193 36.7113L16.0476 29.4771L27.1022 11.7205Z" fill="#080026" stroke="#080026" stroke-width="2" stroke-linecap="round" stroke-linejoin="round"/>
<path d="M26.2829 9.08963C26.498 8.74418 26.7533 8.47015 27.0343 8.28319C27.3153 8.09623 27.6165 8 27.9206 8C28.2248 8 28.5259 8.09623 28.8069 8.28319C29.0879 8.47015 29.3433 8.74418 29.5583 9.08963C29.7734 9.43509 29.944 9.84521 30.0604 10.2966C30.1768 10.7479 30.2367 11.2317 30.2367 11.7202C30.2367 12.2088 30.1768 12.6926 30.0604 13.1439C29.944 13.5953 29.7734 14.0054 29.5583 14.3509L18.5037 32.1075L14 34.0804L15.2283 26.8463L26.2829 9.08963Z" fill="#FFFDF6" stroke="#080026" stroke-width="2" stroke-linecap="round" stroke-linejoin="round"/>
</svg>
