<svg width="45" height="45" viewBox="0 0 45 45" fill="none" xmlns="http://www.w3.org/2000/svg">
<g filter="url(#filter0_d_1820_1097)">
<g filter="url(#filter1_d_1820_1097)">
<circle cx="18.5" cy="18.5" r="18.5" transform="matrix(-1 0 0 1 41 0)" fill="#FFC01D"/>
</g>
</g>
<path d="M22 10.75C21.4033 10.75 20.831 10.9871 20.409 11.409C19.9871 11.831 19.75 12.4033 19.75 13V19C19.75 19.5967 19.9871 20.169 20.409 20.591C20.831 21.0129 21.4033 21.25 22 21.25C22.5967 21.25 23.169 21.0129 23.591 20.591C24.0129 20.169 24.25 19.5967 24.25 19V13C24.25 12.4033 24.0129 11.831 23.591 11.409C23.169 10.9871 22.5967 10.75 22 10.75V10.75Z" fill="#3A3449" stroke="#25282B" stroke-linecap="round" stroke-linejoin="round"/>
<path d="M27.25 17.5V19C27.25 20.3924 26.6969 21.7277 25.7123 22.7123C24.7277 23.6969 23.3924 24.25 22 24.25C20.6076 24.25 19.2723 23.6969 18.2877 22.7123C17.3031 21.7277 16.75 20.3924 16.75 19V17.5" stroke="#25282B" stroke-linecap="round" stroke-linejoin="round"/>
<path d="M22 24.25V27.25" stroke="#25282B" stroke-linecap="round" stroke-linejoin="round"/>
<path d="M19 27.25H25" stroke="#25282B" stroke-linecap="round" stroke-linejoin="round"/>
<defs>
<filter id="filter0_d_1820_1097" x="0" y="0" width="45" height="45" filterUnits="userSpaceOnUse" color-interpolation-filters="sRGB">
<feFlood flood-opacity="0" result="BackgroundImageFix"/>
<feColorMatrix in="SourceAlpha" type="matrix" values="0 0 0 0 0 0 0 0 0 0 0 0 0 0 0 0 0 0 127 0" result="hardAlpha"/>
<feOffset dy="4"/>
<feGaussianBlur stdDeviation="2"/>
<feComposite in2="hardAlpha" operator="out"/>
<feColorMatrix type="matrix" values="0 0 0 0 0 0 0 0 0 0 0 0 0 0 0 0 0 0 0.25 0"/>
<feBlend mode="normal" in2="BackgroundImageFix" result="effect1_dropShadow_1820_1097"/>
<feBlend mode="normal" in="SourceGraphic" in2="effect1_dropShadow_1820_1097" result="shape"/>
</filter>
<filter id="filter1_d_1820_1097" x="2" y="0" width="41" height="41" filterUnits="userSpaceOnUse" color-interpolation-filters="sRGB">
<feFlood flood-opacity="0" result="BackgroundImageFix"/>
<feColorMatrix in="SourceAlpha" type="matrix" values="0 0 0 0 0 0 0 0 0 0 0 0 0 0 0 0 0 0 127 0" result="hardAlpha"/>
<feOffset dy="2"/>
<feGaussianBlur stdDeviation="1"/>
<feComposite in2="hardAlpha" operator="out"/>
<feColorMatrix type="matrix" values="0 0 0 0 1 0 0 0 0 1 0 0 0 0 1 0 0 0 0.3 0"/>
<feBlend mode="normal" in2="BackgroundImageFix" result="effect1_dropShadow_1820_1097"/>
<feBlend mode="normal" in="SourceGraphic" in2="effect1_dropShadow_1820_1097" result="shape"/>
</filter>
</defs>
</svg>
