<svg width="19" height="17" viewBox="0 0 19 17" fill="none" xmlns="http://www.w3.org/2000/svg">
<path d="M17.7902 7.55525L12.5566 2.20986C11.1588 0.79476 9.26476 0 7.29001 0C5.31526 0 3.42117 0.79476 2.02341 2.20986L2.01643 2.21695L0.948139 3.33687C0.837475 3.45751 0.77785 3.61736 0.782064 3.7821C0.786278 3.94684 0.853995 4.10334 0.970678 4.218C1.08736 4.33266 1.24371 4.39634 1.40616 4.39537C1.5686 4.3944 1.7242 4.32885 1.83955 4.21281L2.90473 3.09683C3.33328 2.66218 3.82233 2.29361 4.35628 2.00288L7.9638 5.66642L0.516012 13.2217C0.400717 13.3387 0.309258 13.4775 0.246859 13.6303C0.18446 13.7831 0.152344 13.9469 0.152344 14.1122C0.152344 14.2776 0.18446 14.4414 0.246859 14.5942C0.309258 14.747 0.400717 14.8858 0.516012 15.0028L2.12117 16.6311C2.23643 16.748 2.37329 16.8408 2.52391 16.9041C2.67453 16.9674 2.83596 17 2.999 17C3.16203 17 3.32347 16.9674 3.47409 16.9041C3.62471 16.8408 3.76156 16.748 3.87683 16.6311L11.3246 9.07576L12.4371 10.2043L13.8072 11.5926C13.9225 11.7096 14.0593 11.8024 14.21 11.8657C14.3606 11.929 14.522 11.9615 14.685 11.9615C14.8481 11.9615 15.0095 11.929 15.1601 11.8657C15.3108 11.8024 15.4476 11.7096 15.5629 11.5926L17.7887 9.33469C18.0213 9.0988 18.1521 8.77893 18.1523 8.4453C18.1526 8.11167 18.0224 7.79155 17.7902 7.55525ZM2.99861 15.7402L1.39423 14.1119L6.66975 8.76017L8.27412 10.3885L2.99861 15.7402ZM10.8855 7.73784L9.15234 9.49681L7.54719 7.87006L9.28113 6.11108C9.33883 6.05261 9.38461 5.98317 9.41585 5.90674C9.44708 5.83031 9.46316 5.74838 9.46316 5.66564C9.46316 5.5829 9.44708 5.50097 9.41585 5.42453C9.38461 5.3481 9.33883 5.27866 9.28113 5.22019L5.60844 1.49526C6.66954 1.1921 7.79109 1.18111 8.85777 1.46342C9.92445 1.74573 10.8978 2.31115 11.6776 3.10155L15.1082 6.60454L12.8762 8.86642L11.7637 7.73784C11.7061 7.6793 11.6376 7.63286 11.5623 7.60118C11.4869 7.56949 11.4062 7.55318 11.3246 7.55318C11.2431 7.55318 11.1623 7.56949 11.0869 7.60118C11.0116 7.63286 10.9431 7.6793 10.8855 7.73784ZM14.687 10.7017L13.756 9.75731L15.9795 7.49623L16.9105 8.44064L14.687 10.7017Z" fill="white"/>
<path d="M17.7902 7.55525L12.5566 2.20986C11.1588 0.79476 9.26476 0 7.29001 0C5.31526 0 3.42117 0.79476 2.02341 2.20986L2.01643 2.21695L0.948139 3.33687C0.837475 3.45751 0.77785 3.61736 0.782064 3.7821C0.786278 3.94684 0.853995 4.10334 0.970678 4.218C1.08736 4.33266 1.24371 4.39634 1.40616 4.39537C1.5686 4.3944 1.7242 4.32885 1.83955 4.21281L2.90473 3.09683C3.33328 2.66218 3.82233 2.29361 4.35628 2.00288L7.9638 5.66642L0.516012 13.2217C0.400717 13.3387 0.309258 13.4775 0.246859 13.6303C0.18446 13.7831 0.152344 13.9469 0.152344 14.1122C0.152344 14.2776 0.18446 14.4414 0.246859 14.5942C0.309258 14.747 0.400717 14.8858 0.516012 15.0028L2.12117 16.6311C2.23643 16.748 2.37329 16.8408 2.52391 16.9041C2.67453 16.9674 2.83596 17 2.999 17C3.16203 17 3.32347 16.9674 3.47409 16.9041C3.62471 16.8408 3.76156 16.748 3.87683 16.6311L11.3246 9.07576L12.4371 10.2043L13.8072 11.5926C13.9225 11.7096 14.0593 11.8024 14.21 11.8657C14.3606 11.929 14.522 11.9615 14.685 11.9615C14.8481 11.9615 15.0095 11.929 15.1601 11.8657C15.3108 11.8024 15.4476 11.7096 15.5629 11.5926L17.7887 9.33469C18.0213 9.0988 18.1521 8.77893 18.1523 8.4453C18.1526 8.11167 18.0224 7.79155 17.7902 7.55525ZM2.99861 15.7402L1.39423 14.1119L6.66975 8.76017L8.27412 10.3885L2.99861 15.7402ZM10.8855 7.73784L9.15234 9.49681L7.54719 7.87006L9.28113 6.11108C9.33883 6.05261 9.38461 5.98317 9.41585 5.90674C9.44708 5.83031 9.46316 5.74838 9.46316 5.66564C9.46316 5.5829 9.44708 5.50097 9.41585 5.42453C9.38461 5.3481 9.33883 5.27866 9.28113 5.22019L5.60844 1.49526C6.66954 1.1921 7.79109 1.18111 8.85777 1.46342C9.92445 1.74573 10.8978 2.31115 11.6776 3.10155L15.1082 6.60454L12.8762 8.86642L11.7637 7.73784C11.7061 7.6793 11.6376 7.63286 11.5623 7.60118C11.4869 7.56949 11.4062 7.55318 11.3246 7.55318C11.2431 7.55318 11.1623 7.56949 11.0869 7.60118C11.0116 7.63286 10.9431 7.6793 10.8855 7.73784ZM14.687 10.7017L13.756 9.75731L15.9795 7.49623L16.9105 8.44064L14.687 10.7017Z" stroke="white"/>
</svg>
