<svg width="37" height="36" viewBox="0 0 37 36" fill="none" xmlns="http://www.w3.org/2000/svg">
<mask id="path-1-inside-1_3144_2472" fill="white">
<path fill-rule="evenodd" clip-rule="evenodd" d="M19.6664 0.399616C19.2738 0.0111062 18.6407 0.0143641 18.2522 0.406893L1.25704 17.5779C0.868528 17.9704 0.871786 18.6035 1.26431 18.9921L9.02953 26.6778C9.42206 27.0663 10.0552 27.063 10.4437 26.6705L16.8807 20.1669L31.9859 35.2721C32.3764 35.6626 33.0095 35.6626 33.4001 35.2721L36.4767 32.1954C36.8673 31.8049 36.8673 31.1718 36.4767 30.7812L21.3484 15.6529L27.4389 9.49951C27.8274 9.10698 27.8241 8.47383 27.4316 8.08532L19.6664 0.399616Z"/>
</mask>
<path fill-rule="evenodd" clip-rule="evenodd" d="M19.6664 0.399616C19.2738 0.0111062 18.6407 0.0143641 18.2522 0.406893L1.25704 17.5779C0.868528 17.9704 0.871786 18.6035 1.26431 18.9921L9.02953 26.6778C9.42206 27.0663 10.0552 27.063 10.4437 26.6705L16.8807 20.1669L31.9859 35.2721C32.3764 35.6626 33.0095 35.6626 33.4001 35.2721L36.4767 32.1954C36.8673 31.8049 36.8673 31.1718 36.4767 30.7812L21.3484 15.6529L27.4389 9.49951C27.8274 9.10698 27.8241 8.47383 27.4316 8.08532L19.6664 0.399616Z" fill="#FFC01D"/>
<path d="M18.2522 0.406893L16.4753 -1.35175L16.4753 -1.35175L18.2522 0.406893ZM19.6664 0.399616L17.9077 2.17646V2.17646L19.6664 0.399616ZM1.25704 17.5779L3.03388 19.3365L3.03388 19.3365L1.25704 17.5779ZM1.26431 18.9921L-0.494332 20.7689H-0.494332L1.26431 18.9921ZM9.02953 26.6778L10.7882 24.9009H10.7882L9.02953 26.6778ZM10.4437 26.6705L12.2206 28.4291L12.2206 28.4291L10.4437 26.6705ZM16.8807 20.1669L18.6484 18.3992L16.8716 16.6223L15.1038 18.4083L16.8807 20.1669ZM31.9859 35.2721L33.7536 33.5043L33.7536 33.5043L31.9859 35.2721ZM36.4767 30.7812L34.709 32.549L34.709 32.549L36.4767 30.7812ZM21.3484 15.6529L19.5716 13.8943L17.822 15.662L19.5807 17.4207L21.3484 15.6529ZM27.4389 9.49951L25.662 7.74086L25.662 7.74086L27.4389 9.49951ZM27.4316 8.08532L29.1902 6.30848L29.1902 6.30848L27.4316 8.08532ZM20.029 2.16554C19.4463 2.75433 18.4965 2.75922 17.9077 2.17646L21.425 -1.37722C20.0512 -2.73701 17.8351 -2.7256 16.4753 -1.35175L20.029 2.16554ZM3.03388 19.3365L20.029 2.16554L16.4753 -1.35175L-0.519803 15.8192L3.03388 19.3365ZM3.02296 17.2152C3.61175 17.798 3.61664 18.7477 3.03388 19.3365L-0.519803 15.8192C-1.87959 17.1931 -1.86818 19.4091 -0.494332 20.7689L3.02296 17.2152ZM10.7882 24.9009L3.02296 17.2152L-0.494332 20.7689L7.27088 28.4546L10.7882 24.9009ZM8.66688 24.9118C9.24964 24.323 10.1994 24.3181 10.7882 24.9009L7.27088 28.4546C8.64474 29.8144 10.8608 29.803 12.2206 28.4291L8.66688 24.9118ZM15.1038 18.4083L8.66688 24.9118L12.2206 28.4291L18.6575 21.9256L15.1038 18.4083ZM33.7536 33.5043L18.6484 18.3992L15.1129 21.9347L30.2181 37.0399L33.7536 33.5043ZM31.6323 33.5043C32.2181 32.9186 33.1678 32.9186 33.7536 33.5043L30.2181 37.0399C31.5849 38.4067 33.801 38.4067 35.1678 37.0399L31.6323 33.5043ZM34.709 30.4277L31.6323 33.5043L35.1678 37.0399L38.2445 33.9632L34.709 30.4277ZM34.709 32.549C34.1232 31.9632 34.1232 31.0135 34.709 30.4277L38.2445 33.9632C39.6113 32.5964 39.6113 30.3803 38.2445 29.0135L34.709 32.549ZM19.5807 17.4207L34.709 32.549L38.2445 29.0135L23.1162 13.8852L19.5807 17.4207ZM25.662 7.74086L19.5716 13.8943L23.1253 17.4116L29.2157 11.2582L25.662 7.74086ZM25.6729 9.86216C25.0842 9.27939 25.0793 8.32966 25.662 7.74086L29.2157 11.2582C30.5755 9.88431 30.5641 7.66826 29.1902 6.30848L25.6729 9.86216ZM17.9077 2.17646L25.6729 9.86216L29.1902 6.30848L21.425 -1.37723L17.9077 2.17646Z" fill="#161616" mask="url(#path-1-inside-1_3144_2472)"/>
</svg>
