<svg width="55" height="55" viewBox="0 0 45 45" fill="none" xmlns="http://www.w3.org/2000/svg">
<g filter="url(#filter0_d_4583_186)">
<g filter="url(#filter1_d_4583_186)">
<circle cx="18.5" cy="18.5" r="18.5" transform="matrix(-1 0 0 1 41 0)" fill="#FFC01D"/>
</g>
<path d="M27.7727 14.7846C27.4424 14.7841 27.1162 14.8586 26.8182 15.0024V12.5344C26.8181 12.1445 26.7177 11.7612 26.5268 11.4223C26.336 11.0834 26.0612 10.8003 25.7295 10.601C25.3977 10.4017 25.0204 10.2928 24.6345 10.2852C24.2486 10.2776 23.8674 10.3714 23.5282 10.5574C23.3649 10.0476 23.0269 9.61336 22.5749 9.33287C22.123 9.05238 21.5868 8.94405 21.0628 9.02737C20.5388 9.11069 20.0615 9.38018 19.7167 9.78737C19.3719 10.1946 19.1822 10.7127 19.1818 11.2486V11.7878C18.8838 11.644 18.5576 11.5696 18.2273 11.57C17.6366 11.57 17.07 11.8071 16.6524 12.2291C16.2347 12.6511 16 13.2234 16 13.8202V19.9279C16 21.8036 16.7375 23.6024 18.0503 24.9286C19.363 26.2549 21.1435 27 23 27C24.8565 27 26.637 26.2549 27.9497 24.9286C29.2625 23.6024 30 21.8036 30 19.9279V17.0348C30 16.438 29.7653 15.8657 29.3476 15.4437C28.93 15.0217 28.3634 14.7846 27.7727 14.7846ZM28.7273 19.9279C28.7273 21.4625 28.1239 22.9343 27.0498 24.0194C25.9757 25.1045 24.519 25.7142 23 25.7142C21.481 25.7142 20.0243 25.1045 18.9502 24.0194C17.8761 22.9343 17.2727 21.4625 17.2727 19.9279V13.8202C17.2727 13.5645 17.3733 13.3192 17.5523 13.1383C17.7313 12.9575 17.9741 12.8559 18.2273 12.8559C18.4804 12.8559 18.7232 12.9575 18.9022 13.1383C19.0813 13.3192 19.1818 13.5645 19.1818 13.8202V17.3563C19.1818 17.5268 19.2489 17.6903 19.3682 17.8109C19.4875 17.9315 19.6494 17.9992 19.8182 17.9992C19.987 17.9992 20.1488 17.9315 20.2682 17.8109C20.3875 17.6903 20.4545 17.5268 20.4545 17.3563V11.2486C20.4545 10.9928 20.5551 10.7475 20.7341 10.5667C20.9131 10.3858 21.1559 10.2842 21.4091 10.2842C21.6623 10.2842 21.905 10.3858 22.0841 10.5667C22.2631 10.7475 22.3636 10.9928 22.3636 11.2486V16.7134C22.3636 16.8839 22.4307 17.0474 22.55 17.168C22.6694 17.2885 22.8312 17.3563 23 17.3563C23.1688 17.3563 23.3306 17.2885 23.45 17.168C23.5693 17.0474 23.6364 16.8839 23.6364 16.7134V12.5344C23.6364 12.2786 23.7369 12.0333 23.9159 11.8525C24.095 11.6716 24.3377 11.57 24.5909 11.57C24.8441 11.57 25.0869 11.6716 25.2659 11.8525C25.4449 12.0333 25.5455 12.2786 25.5455 12.5344V18.053C24.6563 18.2062 23.8493 18.6719 23.2671 19.3679C22.6849 20.0639 22.3649 20.9454 22.3636 21.8567C22.3636 22.0272 22.4307 22.1907 22.55 22.3113C22.6694 22.4319 22.8312 22.4996 23 22.4996C23.1688 22.4996 23.3306 22.4319 23.45 22.3113C23.5693 22.1907 23.6364 22.0272 23.6364 21.8567C23.6364 21.1746 23.9045 20.5205 24.3819 20.0382C24.8593 19.556 25.5067 19.285 26.1818 19.285C26.3506 19.285 26.5125 19.2173 26.6318 19.0967C26.7511 18.9761 26.8182 18.8126 26.8182 18.6421V17.0348C26.8182 16.779 26.9188 16.5338 27.0978 16.3529C27.2768 16.172 27.5196 16.0704 27.7727 16.0704C28.0259 16.0704 28.2687 16.172 28.4477 16.3529C28.6267 16.5338 28.7273 16.779 28.7273 17.0348V19.9279Z" fill="#3A3449"/>
</g>
<defs>
<filter id="filter0_d_4583_186" x="0" y="0" width="45" height="45" filterUnits="userSpaceOnUse" color-interpolation-filters="sRGB">
<feFlood flood-opacity="0" result="BackgroundImageFix"/>
<feColorMatrix in="SourceAlpha" type="matrix" values="0 0 0 0 0 0 0 0 0 0 0 0 0 0 0 0 0 0 127 0" result="hardAlpha"/>
<feOffset dy="4"/>
<feGaussianBlur stdDeviation="2"/>
<feComposite in2="hardAlpha" operator="out"/>
<feColorMatrix type="matrix" values="0 0 0 0 0 0 0 0 0 0 0 0 0 0 0 0 0 0 0.25 0"/>
<feBlend mode="normal" in2="BackgroundImageFix" result="effect1_dropShadow_4583_186"/>
<feBlend mode="normal" in="SourceGraphic" in2="effect1_dropShadow_4583_186" result="shape"/>
</filter>
<filter id="filter1_d_4583_186" x="2" y="0" width="41" height="41" filterUnits="userSpaceOnUse" color-interpolation-filters="sRGB">
<feFlood flood-opacity="0" result="BackgroundImageFix"/>
<feColorMatrix in="SourceAlpha" type="matrix" values="0 0 0 0 0 0 0 0 0 0 0 0 0 0 0 0 0 0 127 0" result="hardAlpha"/>
<feOffset dy="2"/>
<feGaussianBlur stdDeviation="1"/>
<feComposite in2="hardAlpha" operator="out"/>
<feColorMatrix type="matrix" values="0 0 0 0 1 0 0 0 0 1 0 0 0 0 1 0 0 0 0.3 0"/>
<feBlend mode="normal" in2="BackgroundImageFix" result="effect1_dropShadow_4583_186"/>
<feBlend mode="normal" in="SourceGraphic" in2="effect1_dropShadow_4583_186" result="shape"/>
</filter>
</defs>
</svg>
