<svg width="138" height="157" viewBox="0 0 138 157" fill="none" xmlns="http://www.w3.org/2000/svg">
<path d="M55.38 26.8201L131.982 103.985C137.051 101.357 150.006 98.5779 161.271 108.491C172.536 118.404 171.221 130.27 169.156 134.964C168.03 137.523 166.227 140.822 161.271 134.964C156.314 129.106 150.194 123.136 147.753 120.883C144.937 119.568 138.403 118.066 134.798 122.572C130.293 128.205 131.982 133.837 133.109 134.964L150.006 151.861C151.133 153.363 151.921 156.367 146.063 156.367C138.741 156.367 127.476 159.184 117.338 143.976C109.227 131.81 112.831 122.009 115.648 118.63L40.1723 42.5911C27.7809 49.3501 18.2056 43.1543 9.75691 38.0851C1.3082 33.0159 -1.50806 15.5552 0.744949 9.92268C2.54733 5.4167 5.62642 7.29419 6.94067 8.79619L21.0219 23.4406C23.6504 25.6936 30.2592 28.8478 35.6663 23.4406C41.0735 18.0335 38.6703 12.1757 36.7928 9.92268L22.1484 -5.285C19.8959 -7.5379 19.5197 -8.1012 19.3321 -8.66451C18.7694 -10.3541 21.5856 -12.0439 24.9651 -12.6071C28.8937 -13.2619 39.0458 -13.7337 51.4373 -1.90552C61.3504 7.55705 58.1963 21.1877 55.38 26.8201Z" fill="#91EAF9"/>
<path d="M122.407 135.527C130.067 149.946 143.622 152.049 149.443 151.298C155.3 156.255 144.562 157.307 138.179 156.931C134.511 156.715 127.158 156.657 117.902 145.666C108.89 134.964 112.269 122.009 115.648 118.629L39.6104 42.5915C35.6689 47.0983 20.2092 47.8818 8.63174 38.0855C1.30952 31.8897 0.183022 20.6248 0.183022 14.9923C0.183022 10.4863 1.30831 12.3629 1.87156 13.8649C2.43481 15.9302 5.36367 21.8631 12.5732 29.0726C21.5852 38.0846 35.6664 35.8316 39.6092 34.1419C42.7633 32.7901 43.9274 33.5786 44.1151 34.1419L122.407 113.56C118.351 123.473 120.717 132.335 122.407 135.527Z" fill="#5BDDFC"/>
<path d="M91.9912 83.7081C92.4418 71.9925 96.3094 66.0597 98.1869 64.5577L99.8766 60.0517L111.705 68.5004L94.2441 111.307L71.151 89.9038L63.8288 82.5816L67.7715 78.6389C74.5305 72.7811 86.7342 79.5776 91.9912 83.7081Z" fill="#BD927C"/>
<path d="M79.0367 120.319L91.9914 109.054L85.2324 101.732L77.9102 96.0997L67.2085 106.801C64.9555 109.054 62.8152 112.208 67.7717 118.066C72.7283 123.924 77.1592 121.821 79.0367 120.319Z" fill="#CB8C84"/>
<path d="M66.6449 107.42L79.257 95.8488L65.7391 82.8944L54.8167 93.9026C52.5637 96.1556 50.4234 99.3097 55.3799 105.167C60.3365 111.025 64.7674 108.922 66.6449 107.42Z" fill="#CB8C84"/>
<path d="M82.9791 100.042L79.0363 95.5363C76.9711 97.6015 70.8129 103.647 67.2081 106.801C63.6033 109.955 64.9551 114.123 66.0816 115.813C69.6864 121.22 72.4651 121.821 73.4039 121.446C69.3485 116.94 71.3386 112.058 72.8406 110.181L82.9791 100.042Z" fill="#B08874"/>
<path d="M72.2793 89.3406L66.2953 83.3575C64.2301 85.4227 57.8581 91.2556 54.2533 94.4098C50.6485 97.564 52.5636 101.225 53.6901 102.915C57.2949 108.322 60.0736 108.923 61.0123 108.547C56.9569 104.041 60.6368 100.793 62.1388 98.9158L72.2793 89.3406Z" fill="#B08874"/>
<path d="M110.015 9.35975L119.591 19.4982L103.256 45.4074L75.094 47.7761L63.8291 35.3847C66.3341 31.4419 73.4043 31.326 79.0367 32.4525C83.5427 33.3537 87.2977 31.326 88.612 30.1995L110.015 9.35975Z" fill="#B08874"/>
<path d="M129.729 61.7414L147.753 43.7176L119.59 16.1185C105.171 34.1425 93.8687 41.0891 91.4279 40.9013C80.6136 37.2965 73.2162 41.2768 71.151 43.7176L95.9339 67.9372C96.8351 66.1348 97.6237 64.9332 98.1869 64.5577C103.143 62.3047 103.819 64.9332 103.256 66.8107C94.8074 79.2022 96.4972 81.4552 99.3134 87.6509C101.566 92.6075 97.9992 94.5976 95.9339 94.9731C84.669 81.4552 75.0937 84.8349 71.151 88.2143L93.1177 110.181C97.1731 114.236 99.5012 112.621 100.44 111.307L113.958 97.7892C116.962 95.5362 122.632 89.1152 121.28 81.455C119.928 73.7949 126.349 65.1208 129.729 61.7414Z" fill="#D9958D"/>
<rect width="35.0851" height="19.3769" rx="9.68845" transform="matrix(-0.730712 0.682686 -0.730712 -0.682686 78.5188 72.2072)" fill="#B08874"/>
<rect width="29.7998" height="12.7123" rx="6.35613" transform="matrix(-0.730712 0.682686 -0.730712 -0.682686 76.6037 73.9598)" fill="#CB8C84"/>
<rect width="36.7253" height="20.0852" rx="10" transform="matrix(-0.730712 0.682686 -0.730712 -0.682686 67.7608 57.4293)" fill="#B08874"/>
<rect width="29.7998" height="12.7123" rx="6.35613" transform="matrix(-0.730712 0.682686 -0.730712 -0.682686 65.2343 59.7969)" fill="#CB8C84"/>
<rect x="139.6" y="41.4644" width="49.2058" height="30.6468" rx="5" transform="rotate(-135 139.6 41.4644)" fill="#C464B0"/>
<rect x="149.742" y="51.847" width="49.2058" height="30.6468" rx="5" transform="rotate(-135 149.742 51.847)" fill="#CE7BBC"/>
</svg>
