<svg width="214" height="43" viewBox="0 0 214 43" fill="none" xmlns="http://www.w3.org/2000/svg">
<path d="M204 19.3925C204 23.7513 165.842 33 108.007 33C50.1718 33 10 22.9349 10 18.576C10 14.2171 50.1718 10.6836 108.007 10.6836C165.842 10.6836 204 15.0336 204 19.3925ZM30.6054 18.576C30.6054 21.487 69.3828 25.3798 108.007 25.3798C146.631 25.3798 182.835 21.648 182.835 18.7371C182.835 14.7103 146.631 11.5695 108.007 11.5695C69.3828 11.5695 26.6462 14.7909 30.6054 18.576Z" fill="#936FD1"/>
<g filter="url(#filter0_f_2170_8058)">
<path d="M204 19.3925C204 23.7513 165.842 33 108.007 33C50.1718 33 10 22.9349 10 18.576C10 14.2171 50.1718 10.6836 108.007 10.6836C165.842 10.6836 204 15.0336 204 19.3925ZM30.6054 18.576C30.6054 21.487 69.3828 25.3798 108.007 25.3798C146.631 25.3798 182.835 21.648 182.835 18.7371C182.835 14.7103 146.631 11.5695 108.007 11.5695C69.3828 11.5695 26.6462 14.7909 30.6054 18.576Z" fill="#936FD1"/>
</g>
<defs>
<filter id="filter0_f_2170_8058" x="0" y="0.683594" width="214" height="42.3164" filterUnits="userSpaceOnUse" color-interpolation-filters="sRGB">
<feFlood flood-opacity="0" result="BackgroundImageFix"/>
<feBlend mode="normal" in="SourceGraphic" in2="BackgroundImageFix" result="shape"/>
<feGaussianBlur stdDeviation="5" result="effect1_foregroundBlur_2170_8058"/>
</filter>
</defs>
</svg>
