<svg width="99" height="46" viewBox="0 0 99 46" fill="none" xmlns="http://www.w3.org/2000/svg">
<path d="M88.6519 22.3925C88.6519 26.7513 73.1818 36 49.7342 36C26.2865 36 10 25.9349 10 21.576C10 17.2171 26.2865 13.6836 49.7342 13.6836C73.1818 13.6836 88.6519 18.0336 88.6519 22.3925ZM18.3539 21.576C18.3539 24.487 34.0751 28.3798 49.7342 28.3798C65.3932 28.3798 80.0711 24.648 80.0711 21.7371C80.0711 17.7103 65.3932 14.5695 49.7342 14.5695C34.0751 14.5695 16.7488 17.7909 18.3539 21.576Z" fill="#936FD1"/>
<g filter="url(#filter0_f_2148_7801)">
<path d="M88.6519 22.3925C88.6519 26.7513 73.1818 36 49.7342 36C26.2865 36 10 25.9349 10 21.576C10 17.2171 26.2865 13.6836 49.7342 13.6836C73.1818 13.6836 88.6519 18.0336 88.6519 22.3925ZM18.3539 21.576C18.3539 24.487 34.0751 28.3798 49.7342 28.3798C65.3932 28.3798 80.0711 24.648 80.0711 21.7371C80.0711 17.7103 65.3932 14.5695 49.7342 14.5695C34.0751 14.5695 16.7488 17.7909 18.3539 21.576Z" fill="#936FD1"/>
</g>
<defs>
<filter id="filter0_f_2148_7801" x="0" y="3.68359" width="98.6523" height="42.3164" filterUnits="userSpaceOnUse" color-interpolation-filters="sRGB">
<feFlood flood-opacity="0" result="BackgroundImageFix"/>
<feBlend mode="normal" in="SourceGraphic" in2="BackgroundImageFix" result="shape"/>
<feGaussianBlur stdDeviation="5" result="effect1_foregroundBlur_2148_7801"/>
</filter>
</defs>
</svg>
