<svg width="141" height="105" viewBox="0 0 141 105" fill="none" xmlns="http://www.w3.org/2000/svg">
<mask id="mask0_3447_15920" style="mask-type:alpha" maskUnits="userSpaceOnUse" x="0" y="0" width="141" height="105">
<path d="M25.3058 29.365V0H22.0385V29.365C22.0215 35.1274 19.724 40.6489 15.6482 44.7223C11.5723 48.7958 6.04948 51.0901 0.287013 51.1036C0.189633 51.1036 0.0948167 51.1036 0 51.1036V54.1275C0.0948167 54.1275 0.189633 54.1275 0.287013 54.1275C6.04727 54.141 11.5681 56.4335 15.6436 60.5042C19.7192 64.5749 22.0182 70.0931 22.0385 75.8533V104.875H25.3186V75.8533C25.3354 70.1026 27.6239 64.5914 31.6854 60.5203C35.747 56.4491 41.2528 54.1476 47.0034 54.1172V51.1036C41.2503 51.0759 35.7413 48.7754 31.677 44.7034C27.6127 40.6315 25.3226 35.1181 25.3058 29.365Z" fill="#3A3449"/>
<path d="M72.2887 29.365V0H69.0086V29.365C68.9917 35.1252 66.6959 40.6447 62.6228 44.7178C58.5497 48.791 53.0302 51.0867 47.2699 51.1036C47.1725 51.1036 47.0777 51.1036 46.9829 51.1036V54.1275C47.0777 54.1275 47.1725 54.1275 47.2699 54.1275C53.028 54.1444 58.5455 56.4384 62.6183 60.5087C66.691 64.5791 68.9883 70.0953 69.0086 75.8533V104.875H72.2887V75.8533C72.3055 70.1026 74.5939 64.5914 78.6555 60.5203C82.7171 56.4491 88.2229 54.1476 93.9735 54.1172V51.1036C88.2226 51.0725 82.7169 48.7705 78.6554 44.6989C74.5939 40.6273 72.3055 35.1159 72.2887 29.365Z" fill="#3A3449"/>
<path d="M119.315 29.3701V0H116.035V29.3675C116.019 35.1269 113.724 40.6459 109.653 44.7193C105.581 48.7928 100.063 51.0898 94.3041 51.1087C94.2093 51.1087 94.1145 51.1087 94.0171 51.1087V54.1224C94.1145 54.1224 94.2093 54.1224 94.3041 54.1224C100.062 54.1413 105.578 56.4369 109.649 60.5081C113.721 64.5794 116.016 70.0957 116.035 75.8533V104.88H119.315V75.8533C119.332 70.1026 121.62 64.5914 125.682 60.5203C129.744 56.4491 135.249 54.1476 141 54.1172V51.1062C135.25 51.0751 129.744 48.7735 125.683 44.7024C121.621 40.6314 119.333 35.1206 119.315 29.3701Z" fill="#3A3449"/>
<path d="M51.2061 51.2292H43.0339V53.9532H51.2061V51.2292Z" fill="#3A3449"/>
<path d="M98.1967 51.2292H90.0245V53.9532H98.1967V51.2292Z" fill="#3A3449"/>
</mask>
<g mask="url(#mask0_3447_15920)">
<rect x="-190" y="-84" width="484" height="304" fill="#3A3449"/>
</g>
</svg>
