<svg width="141" height="105" viewBox="0 0 141 105" fill="none" xmlns="http://www.w3.org/2000/svg">
<mask id="mask0_2921_12177" style="mask-type:alpha" maskUnits="userSpaceOnUse" x="0" y="0" width="142" height="105">
<path d="M25.3058 29.365V0H22.0385V29.365C22.0215 35.1274 19.724 40.6489 15.6482 44.7223C11.5723 48.7958 6.04948 51.0901 0.287013 51.1036C0.189633 51.1036 0.0948167 51.1036 0 51.1036V54.1275C0.0948167 54.1275 0.189633 54.1275 0.287013 54.1275C6.04727 54.141 11.5681 56.4335 15.6436 60.5042C19.7192 64.5749 22.0182 70.0931 22.0385 75.8533V104.875H25.3186V75.8533C25.3354 70.1026 27.6239 64.5914 31.6854 60.5203C35.747 56.4491 41.2528 54.1476 47.0034 54.1172V51.1036C41.2503 51.0759 35.7413 48.7754 31.677 44.7034C27.6127 40.6315 25.3226 35.1181 25.3058 29.365Z" fill="white"/>
<path d="M72.2882 29.365V0H69.0081V29.365C68.9912 35.1252 66.6954 40.6447 62.6223 44.7178C58.5492 48.791 53.0297 51.0867 47.2694 51.1036C47.1721 51.1036 47.0772 51.1036 46.9824 51.1036V54.1275C47.0772 54.1275 47.1721 54.1275 47.2694 54.1275C53.0275 54.1444 58.545 56.4384 62.6178 60.5087C66.6906 64.5791 68.9878 70.0953 69.0081 75.8533V104.875H72.2882V75.8533C72.305 70.1026 74.5935 64.5914 78.655 60.5203C82.7166 56.4491 88.2224 54.1476 93.973 54.1172V51.1036C88.2221 51.0725 82.7164 48.7705 78.6549 44.6989C74.5934 40.6273 72.305 35.1159 72.2882 29.365Z" fill="white"/>
<path d="M119.316 29.3701V0H116.036V29.3675C116.019 35.1269 113.725 40.6459 109.653 44.7193C105.582 48.7928 100.064 51.0898 94.3046 51.1087C94.2098 51.1087 94.115 51.1087 94.0176 51.1087V54.1224C94.115 54.1224 94.2098 54.1224 94.3046 54.1224C100.062 54.1413 105.579 56.4369 109.65 60.5081C113.721 64.5794 116.017 70.0957 116.036 75.8533V104.88H119.316V75.8533C119.333 70.1026 121.621 64.5914 125.683 60.5203C129.744 56.4491 135.25 54.1476 141 54.1172V51.1062C135.25 51.0751 129.745 48.7735 125.683 44.7024C121.622 40.6314 119.333 35.1206 119.316 29.3701Z" fill="white"/>
<path d="M51.2064 51.2285H43.0342V53.9526H51.2064V51.2285Z" fill="white" stroke="#FFC01D" stroke-miterlimit="10"/>
<path d="M98.1966 51.2285H90.0244V53.9526H98.1966V51.2285Z" fill="white" stroke="#FFC01D" stroke-miterlimit="10"/>
</mask>
<g mask="url(#mask0_2921_12177)">
<rect x="-190" y="-84" width="484" height="304" fill="white"/>
</g>
</svg>
