<svg width="23" height="20" viewBox="0 0 23 20" fill="none" xmlns="http://www.w3.org/2000/svg">
<mask id="path-1-inside-1_3466_1177" fill="white">
<path d="M4.61456 12.096C4.4599 12.096 4.32656 12.0427 4.21456 11.936C4.1079 11.8293 4.05456 11.7013 4.05456 11.552C4.05456 11.3973 4.1079 11.2667 4.21456 11.16C4.32656 11.048 4.4599 10.992 4.61456 10.992C4.7639 10.992 4.8919 11.048 4.99856 11.16C5.10523 11.2667 5.15856 11.3973 5.15856 11.552C5.15856 11.7013 5.10523 11.8293 4.99856 11.936C4.8919 12.0427 4.7639 12.096 4.61456 12.096ZM6.28181 15.144C6.18581 14.7707 6.10315 14.4213 6.03381 14.096C5.96981 13.776 5.92181 13.4853 5.88981 13.224C5.85781 12.968 5.84181 12.7493 5.84181 12.568C5.84181 12.1947 5.90315 11.8827 6.02581 11.632C6.15381 11.3813 6.32181 11.1813 6.52981 11.032C6.74315 10.8773 6.97515 10.768 7.22581 10.704C7.47648 10.6347 7.72715 10.6 7.97781 10.6C8.23381 10.6 8.46848 10.6213 8.68181 10.664C8.69248 10.4987 8.67915 10.3493 8.64181 10.216C8.60981 10.0827 8.55915 9.968 8.48981 9.872C8.42581 9.776 8.34581 9.70133 8.24981 9.648C8.15915 9.59467 8.06048 9.568 7.95381 9.568C7.85248 9.568 7.75115 9.59467 7.64981 9.648C7.54848 9.696 7.45248 9.768 7.36181 9.864C7.27648 9.96 7.19381 10.0827 7.11381 10.232L6.24181 9.752C6.38581 9.42667 6.55648 9.17067 6.75381 8.984C6.95115 8.792 7.15648 8.656 7.36981 8.576C7.58848 8.49067 7.80181 8.448 8.00981 8.448C8.32981 8.448 8.60448 8.51733 8.83381 8.656C9.06848 8.78933 9.25781 8.96533 9.40181 9.184C9.54581 9.39733 9.65248 9.62667 9.72181 9.872C9.79115 10.1173 9.82581 10.352 9.82581 10.576C9.82581 10.7467 9.80715 10.9173 9.76981 11.088C9.73781 11.2533 9.69781 11.4027 9.64981 11.536C9.60715 11.6693 9.56448 11.7733 9.52181 11.848C9.22848 11.768 8.95115 11.7093 8.68981 11.672C8.42848 11.6347 8.19115 11.624 7.97781 11.64C7.76981 11.6507 7.58848 11.6933 7.43381 11.768C7.28448 11.8373 7.16715 11.9413 7.08181 12.08C7.00181 12.2187 6.96181 12.3947 6.96181 12.608C6.96181 12.8053 6.97781 13.0293 7.00981 13.28C7.04181 13.536 7.08715 13.8 7.14581 14.072C7.20448 14.344 7.27115 14.6133 7.34581 14.88L6.28181 15.144ZM11.2286 12.096C11.074 12.096 10.9406 12.0427 10.8286 11.936C10.722 11.8293 10.6686 11.7013 10.6686 11.552C10.6686 11.3973 10.722 11.2667 10.8286 11.16C10.9406 11.048 11.074 10.992 11.2286 10.992C11.378 10.992 11.506 11.048 11.6126 11.16C11.7193 11.2667 11.7726 11.3973 11.7726 11.552C11.7726 11.7013 11.7193 11.8293 11.6126 11.936C11.506 12.0427 11.378 12.096 11.2286 12.096ZM12.6159 11.68L13.0079 10.664C13.2052 10.7493 13.3945 10.8133 13.5759 10.856C13.7572 10.8987 13.9385 10.92 14.1199 10.92C14.3065 10.92 14.4612 10.904 14.5839 10.872C14.7119 10.8347 14.8079 10.7813 14.8719 10.712C14.9359 10.6427 14.9679 10.56 14.9679 10.464C14.9679 10.3733 14.9385 10.248 14.8799 10.088C14.8265 9.928 14.7279 9.72 14.5839 9.464C14.4399 9.20267 14.2292 8.88 13.9519 8.496L14.9039 7.864C15.1599 8.22667 15.3812 8.58133 15.5679 8.928C15.7545 9.26933 15.8985 9.58933 15.9999 9.888C16.1065 10.1813 16.1599 10.44 16.1599 10.664C16.1599 10.9413 16.0852 11.184 15.9359 11.392C15.7919 11.5947 15.5759 11.7547 15.2879 11.872C15.0052 11.9893 14.6559 12.048 14.2399 12.048C14.0852 12.048 13.9119 12.0347 13.7199 12.008C13.5279 11.9813 13.3332 11.9413 13.1359 11.888C12.9439 11.8347 12.7705 11.7653 12.6159 11.68Z"/>
</mask>
<path d="M4.61456 12.096C4.4599 12.096 4.32656 12.0427 4.21456 11.936C4.1079 11.8293 4.05456 11.7013 4.05456 11.552C4.05456 11.3973 4.1079 11.2667 4.21456 11.16C4.32656 11.048 4.4599 10.992 4.61456 10.992C4.7639 10.992 4.8919 11.048 4.99856 11.16C5.10523 11.2667 5.15856 11.3973 5.15856 11.552C5.15856 11.7013 5.10523 11.8293 4.99856 11.936C4.8919 12.0427 4.7639 12.096 4.61456 12.096ZM6.28181 15.144C6.18581 14.7707 6.10315 14.4213 6.03381 14.096C5.96981 13.776 5.92181 13.4853 5.88981 13.224C5.85781 12.968 5.84181 12.7493 5.84181 12.568C5.84181 12.1947 5.90315 11.8827 6.02581 11.632C6.15381 11.3813 6.32181 11.1813 6.52981 11.032C6.74315 10.8773 6.97515 10.768 7.22581 10.704C7.47648 10.6347 7.72715 10.6 7.97781 10.6C8.23381 10.6 8.46848 10.6213 8.68181 10.664C8.69248 10.4987 8.67915 10.3493 8.64181 10.216C8.60981 10.0827 8.55915 9.968 8.48981 9.872C8.42581 9.776 8.34581 9.70133 8.24981 9.648C8.15915 9.59467 8.06048 9.568 7.95381 9.568C7.85248 9.568 7.75115 9.59467 7.64981 9.648C7.54848 9.696 7.45248 9.768 7.36181 9.864C7.27648 9.96 7.19381 10.0827 7.11381 10.232L6.24181 9.752C6.38581 9.42667 6.55648 9.17067 6.75381 8.984C6.95115 8.792 7.15648 8.656 7.36981 8.576C7.58848 8.49067 7.80181 8.448 8.00981 8.448C8.32981 8.448 8.60448 8.51733 8.83381 8.656C9.06848 8.78933 9.25781 8.96533 9.40181 9.184C9.54581 9.39733 9.65248 9.62667 9.72181 9.872C9.79115 10.1173 9.82581 10.352 9.82581 10.576C9.82581 10.7467 9.80715 10.9173 9.76981 11.088C9.73781 11.2533 9.69781 11.4027 9.64981 11.536C9.60715 11.6693 9.56448 11.7733 9.52181 11.848C9.22848 11.768 8.95115 11.7093 8.68981 11.672C8.42848 11.6347 8.19115 11.624 7.97781 11.64C7.76981 11.6507 7.58848 11.6933 7.43381 11.768C7.28448 11.8373 7.16715 11.9413 7.08181 12.08C7.00181 12.2187 6.96181 12.3947 6.96181 12.608C6.96181 12.8053 6.97781 13.0293 7.00981 13.28C7.04181 13.536 7.08715 13.8 7.14581 14.072C7.20448 14.344 7.27115 14.6133 7.34581 14.88L6.28181 15.144ZM11.2286 12.096C11.074 12.096 10.9406 12.0427 10.8286 11.936C10.722 11.8293 10.6686 11.7013 10.6686 11.552C10.6686 11.3973 10.722 11.2667 10.8286 11.16C10.9406 11.048 11.074 10.992 11.2286 10.992C11.378 10.992 11.506 11.048 11.6126 11.16C11.7193 11.2667 11.7726 11.3973 11.7726 11.552C11.7726 11.7013 11.7193 11.8293 11.6126 11.936C11.506 12.0427 11.378 12.096 11.2286 12.096ZM12.6159 11.68L13.0079 10.664C13.2052 10.7493 13.3945 10.8133 13.5759 10.856C13.7572 10.8987 13.9385 10.92 14.1199 10.92C14.3065 10.92 14.4612 10.904 14.5839 10.872C14.7119 10.8347 14.8079 10.7813 14.8719 10.712C14.9359 10.6427 14.9679 10.56 14.9679 10.464C14.9679 10.3733 14.9385 10.248 14.8799 10.088C14.8265 9.928 14.7279 9.72 14.5839 9.464C14.4399 9.20267 14.2292 8.88 13.9519 8.496L14.9039 7.864C15.1599 8.22667 15.3812 8.58133 15.5679 8.928C15.7545 9.26933 15.8985 9.58933 15.9999 9.888C16.1065 10.1813 16.1599 10.44 16.1599 10.664C16.1599 10.9413 16.0852 11.184 15.9359 11.392C15.7919 11.5947 15.5759 11.7547 15.2879 11.872C15.0052 11.9893 14.6559 12.048 14.2399 12.048C14.0852 12.048 13.9119 12.0347 13.7199 12.008C13.5279 11.9813 13.3332 11.9413 13.1359 11.888C12.9439 11.8347 12.7705 11.7653 12.6159 11.68Z" fill="white"/>
<path d="M4.21456 11.936L3.50746 12.6431L3.51608 12.6517L3.52491 12.6601L4.21456 11.936ZM4.21456 11.16L3.50746 10.4529L3.50746 10.4529L4.21456 11.16ZM4.99856 11.16L4.27443 11.8497L4.28284 11.8585L4.29146 11.8671L4.99856 11.16ZM4.99856 11.936L5.70567 12.6431L5.70567 12.6431L4.99856 11.936ZM4.61456 11.096C4.65457 11.096 4.70966 11.1034 4.76996 11.1275C4.83025 11.1516 4.87525 11.1843 4.90422 11.2119L3.52491 12.6601C3.82285 12.9439 4.20312 13.096 4.61456 13.096V11.096ZM4.92167 11.2289C4.95253 11.2598 4.98981 11.3086 5.01764 11.3754C5.04556 11.4424 5.05456 11.5049 5.05456 11.552H3.05456C3.05456 11.9696 3.2154 12.351 3.50746 12.6431L4.92167 11.2289ZM5.05456 11.552C5.05456 11.5918 5.04722 11.6502 5.02041 11.7159C4.9934 11.7821 4.95587 11.8329 4.92167 11.8671L3.50746 10.4529C3.20801 10.7523 3.05456 11.1396 3.05456 11.552H5.05456ZM4.92167 11.8671C4.89476 11.894 4.84961 11.9292 4.7858 11.956C4.72152 11.983 4.66086 11.992 4.61456 11.992V9.992C4.18761 9.992 3.80193 10.1584 3.50746 10.4529L4.92167 11.8671ZM4.61456 11.992C4.56091 11.992 4.49268 11.9812 4.42175 11.9502C4.35157 11.9195 4.30291 11.8796 4.27443 11.8497L5.7227 10.4703C5.43488 10.1681 5.04839 9.992 4.61456 9.992V11.992ZM4.29146 11.8671C4.25726 11.8329 4.21973 11.7821 4.19272 11.7159C4.16591 11.6502 4.15856 11.5918 4.15856 11.552H6.15856C6.15856 11.1396 6.00512 10.7523 5.70567 10.4529L4.29146 11.8671ZM4.15856 11.552C4.15856 11.5049 4.16757 11.4424 4.19549 11.3754C4.22332 11.3086 4.2606 11.2598 4.29146 11.2289L5.70567 12.6431C5.99773 12.351 6.15856 11.9696 6.15856 11.552H4.15856ZM4.29146 11.2289C4.32232 11.198 4.37116 11.1608 4.43795 11.1329C4.50494 11.105 4.56746 11.096 4.61456 11.096V13.096C5.03213 13.096 5.41361 12.9352 5.70567 12.6431L4.29146 11.2289ZM6.28181 15.144L5.31332 15.393L5.56026 16.3534L6.52263 16.1146L6.28181 15.144ZM6.03381 14.096L5.05316 14.2921L5.05578 14.3044L6.03381 14.096ZM5.88981 13.224L6.8824 13.1025L6.88209 13.1L5.88981 13.224ZM6.02581 11.632L5.13521 11.1772L5.13134 11.1848L5.1276 11.1924L6.02581 11.632ZM6.52981 11.032L7.11303 11.8443L7.11678 11.8416L6.52981 11.032ZM7.22581 10.704L7.4732 11.6729L7.48282 11.6705L7.4924 11.6678L7.22581 10.704ZM8.68181 10.664L8.4857 11.6446L9.60617 11.8687L9.67974 10.7284L8.68181 10.664ZM8.64181 10.216L7.66943 10.4494L7.6738 10.4676L7.67885 10.4856L8.64181 10.216ZM8.48981 9.872L7.65776 10.4267L7.66816 10.4423L7.67914 10.4575L8.48981 9.872ZM8.24981 9.648L7.74279 10.5099L7.75341 10.5162L7.76417 10.5222L8.24981 9.648ZM7.64981 9.648L8.0779 10.5517L8.09693 10.5427L8.11556 10.5329L7.64981 9.648ZM7.36181 9.864L6.6348 9.17738L6.62444 9.18835L6.61441 9.19964L7.36181 9.864ZM7.11381 10.232L6.63159 11.108L7.51767 11.5958L7.99529 10.7042L7.11381 10.232ZM6.24181 9.752L5.32739 9.34725L4.95622 10.1858L5.75959 10.628L6.24181 9.752ZM6.75381 8.984L7.44108 9.71054L7.45117 9.70073L6.75381 8.984ZM7.36981 8.576L7.72097 9.51241L7.73336 9.50758L7.36981 8.576ZM8.83381 8.656L8.3164 9.51173L8.32801 9.51875L8.33981 9.52546L8.83381 8.656ZM9.40181 9.184L8.56659 9.73403L8.57297 9.74347L9.40181 9.184ZM9.72181 9.872L8.75951 10.144L8.75951 10.144L9.72181 9.872ZM9.76981 11.088L8.79291 10.8743L8.79033 10.8861L8.78804 10.898L9.76981 11.088ZM9.64981 11.536L8.70893 11.1973L8.70285 11.2141L8.69739 11.2312L9.64981 11.536ZM9.52181 11.848L9.2587 12.8128L10.0058 13.0165L10.3901 12.3441L9.52181 11.848ZM7.97781 11.64L8.02903 12.6387L8.04083 12.6381L8.0526 12.6372L7.97781 11.64ZM7.43381 11.768L7.85493 12.675L7.86177 12.6718L7.86856 12.6686L7.43381 11.768ZM7.08181 12.08L6.23016 11.5559L6.22272 11.568L6.21563 11.5803L7.08181 12.08ZM7.00981 13.28L8.0021 13.156L8.00176 13.1534L7.00981 13.28ZM7.14581 14.072L6.16829 14.2828L6.16829 14.2828L7.14581 14.072ZM7.34581 14.88L7.58663 15.8506L8.58657 15.6025L8.30878 14.6104L7.34581 14.88ZM7.25031 14.895C7.15724 14.533 7.07787 14.1974 7.01185 13.8876L5.05578 14.3044C5.12842 14.6453 5.21439 15.0083 5.31332 15.393L7.25031 14.895ZM7.0144 13.8999C6.95422 13.599 6.91072 13.3337 6.8824 13.1025L4.89723 13.3455C4.93291 13.6369 4.98541 13.953 5.05323 14.2921L7.0144 13.8999ZM6.88209 13.1C6.85328 12.8695 6.84181 12.6946 6.84181 12.568H4.84181C4.84181 12.804 4.86235 13.0665 4.89754 13.348L6.88209 13.1ZM6.84181 12.568C6.84181 12.298 6.887 12.1472 6.92403 12.0716L5.1276 11.1924C4.9193 11.6181 4.84181 12.0914 4.84181 12.568H6.84181ZM6.91642 12.0868C6.97924 11.9638 7.047 11.8917 7.11302 11.8443L5.94661 10.2197C5.59663 10.4709 5.32839 10.7989 5.13521 11.1772L6.91642 12.0868ZM7.11678 11.8416C7.22992 11.7596 7.34706 11.7051 7.4732 11.6729L6.97843 9.73508C6.60324 9.83088 6.25638 9.99508 5.94285 10.2224L7.11678 11.8416ZM7.4924 11.6678C7.65952 11.6216 7.82057 11.6 7.97781 11.6V9.6C7.63373 9.6 7.29345 9.64775 6.95923 9.74019L7.4924 11.6678ZM7.97781 11.6C8.17917 11.6 8.34707 11.6169 8.4857 11.6446L8.87793 9.68342C8.58989 9.62581 8.28846 9.6 7.97781 9.6V11.6ZM9.67974 10.7284C9.69628 10.472 9.67782 10.2072 9.60478 9.94637L7.67885 10.4856C7.68047 10.4914 7.68868 10.5253 7.68389 10.5996L9.67974 10.7284ZM9.6142 9.98263C9.55652 9.7423 9.45725 9.50355 9.30049 9.28651L7.67914 10.4575C7.67058 10.4456 7.66639 10.437 7.66513 10.4342C7.66398 10.4316 7.66618 10.4359 7.66943 10.4494L9.6142 9.98263ZM9.32187 9.3173C9.1741 9.09565 8.97781 8.90848 8.73546 8.77384L7.76417 10.5222C7.74129 10.5094 7.7192 10.4934 7.6995 10.4751C7.67995 10.4568 7.66636 10.4396 7.65776 10.4267L9.32187 9.3173ZM8.75684 8.78607C8.51024 8.64101 8.23614 8.568 7.95381 8.568V10.568C7.92289 10.568 7.88628 10.564 7.84691 10.5534C7.80745 10.5427 7.77224 10.5273 7.74279 10.5099L8.75684 8.78607ZM7.95381 8.568C7.67011 8.568 7.41012 8.64411 7.18407 8.76308L8.11556 10.5329C8.09218 10.5452 8.03485 10.568 7.95381 10.568V8.568ZM7.22173 8.74426C6.9901 8.85398 6.7959 9.00681 6.6348 9.17738L8.08883 10.5506C8.09897 10.5399 8.10357 10.5367 8.10181 10.538C8.09987 10.5395 8.09195 10.5451 8.0779 10.5517L7.22173 8.74426ZM6.61441 9.19964C6.46353 9.36937 6.33835 9.56188 6.23233 9.75978L7.99529 10.7042C8.04928 10.6034 8.08943 10.5506 8.10922 10.5284L6.61441 9.19964ZM7.59604 9.35595L6.72404 8.87595L5.75959 10.628L6.63159 11.108L7.59604 9.35595ZM7.15624 10.1567C7.26239 9.91692 7.36483 9.78254 7.44101 9.71047L6.06661 8.25753C5.74814 8.55879 5.50923 8.93641 5.32739 9.34725L7.15624 10.1567ZM7.45117 9.70073C7.5697 9.58539 7.66096 9.53482 7.72094 9.51233L7.01869 7.63967C6.652 7.77718 6.33259 7.99861 6.05646 8.26727L7.45117 9.70073ZM7.73336 9.50758C7.85095 9.46169 7.94115 9.448 8.00981 9.448V7.448C7.66248 7.448 7.32602 7.51964 7.00627 7.64442L7.73336 9.50758ZM8.00981 9.448C8.18304 9.448 8.27106 9.48432 8.3164 9.51173L9.35123 7.80027C8.9379 7.55035 8.47659 7.448 8.00981 7.448V9.448ZM8.33981 9.52546C8.4415 9.58324 8.51227 9.65142 8.56664 9.73399L10.237 8.63401C10.0034 8.27925 9.69546 7.99543 9.32782 7.78654L8.33981 9.52546ZM8.57297 9.74347C8.65806 9.86953 8.71937 10.0019 8.75951 10.144L10.6841 9.60004C10.5856 9.25139 10.4336 8.92514 10.2307 8.62453L8.57297 9.74347ZM8.75951 10.144C8.80721 10.3128 8.82581 10.4556 8.82581 10.576H10.8258C10.8258 10.2484 10.7751 9.92189 10.6841 9.60004L8.75951 10.144ZM8.82581 10.576C8.82581 10.6731 8.81526 10.7722 8.79291 10.8743L10.7467 11.3017C10.799 11.0625 10.8258 10.8202 10.8258 10.576H8.82581ZM8.78804 10.898C8.76405 11.0219 8.7366 11.1204 8.70893 11.1973L10.5907 11.8747C10.659 11.6849 10.7116 11.4848 10.7516 11.278L8.78804 10.898ZM8.69739 11.2312C8.68228 11.2784 8.66982 11.3121 8.66065 11.3344C8.65106 11.3578 8.64807 11.3615 8.65357 11.3519L10.3901 12.3441C10.4821 12.1831 10.5498 12.0048 10.6022 11.8408L8.69739 11.2312ZM9.78493 10.8832C9.45745 10.7939 9.13922 10.726 8.83124 10.6821L8.54839 12.6619C8.76308 12.6926 8.99951 12.7421 9.2587 12.8128L9.78493 10.8832ZM8.83124 10.6821C8.51423 10.6368 8.20292 10.6203 7.90302 10.6428L8.0526 12.6372C8.17938 12.6277 8.34274 12.6326 8.54839 12.6619L8.83124 10.6821ZM7.9266 10.6413C7.61312 10.6574 7.29639 10.7239 6.99907 10.8674L7.86856 12.6686C7.88057 12.6628 7.92651 12.6439 8.02903 12.6387L7.9266 10.6413ZM7.0127 10.861C6.68752 11.012 6.41955 11.2481 6.23016 11.5559L7.93347 12.6041C7.92669 12.6151 7.91469 12.6308 7.89712 12.6463C7.87962 12.6619 7.86384 12.6709 7.85493 12.675L7.0127 10.861ZM6.21563 11.5803C6.02352 11.9133 5.96181 12.2757 5.96181 12.608H7.96181C7.96181 12.5628 7.96614 12.5412 7.96695 12.5376C7.96754 12.535 7.96395 12.5521 7.948 12.5797L6.21563 11.5803ZM5.96181 12.608C5.96181 12.8575 5.98191 13.125 6.01786 13.4066L8.00176 13.1534C7.97372 12.9337 7.96181 12.7532 7.96181 12.608H5.96181ZM6.01754 13.404C6.05345 13.6913 6.10391 13.9843 6.16829 14.2828L8.12334 13.8612C8.07038 13.6157 8.03018 13.3807 8.00209 13.156L6.01754 13.404ZM6.16829 14.2828C6.2312 14.5745 6.30271 14.8634 6.38285 15.1496L8.30878 14.6104C8.23958 14.3632 8.17777 14.1135 8.12334 13.8612L6.16829 14.2828ZM7.105 13.9094L6.041 14.1734L6.52263 16.1146L7.58663 15.8506L7.105 13.9094ZM10.8286 11.936L10.1215 12.6431L10.1301 12.6517L10.139 12.6601L10.8286 11.936ZM10.8286 11.16L10.1215 10.4529L10.1215 10.4529L10.8286 11.16ZM11.6126 11.16L10.8885 11.8497L10.8969 11.8585L10.9055 11.8671L11.6126 11.16ZM11.6126 11.936L12.3197 12.6431L12.3197 12.6431L11.6126 11.936ZM11.2286 11.096C11.2686 11.096 11.3237 11.1034 11.384 11.1275C11.4443 11.1516 11.4893 11.1843 11.5183 11.2119L10.139 12.6601C10.4369 12.9439 10.8172 13.096 11.2286 13.096V11.096ZM11.5357 11.2289C11.5666 11.2598 11.6039 11.3086 11.6317 11.3754C11.6596 11.4424 11.6686 11.5049 11.6686 11.552H9.66863C9.66863 11.9696 9.82946 12.351 10.1215 12.6431L11.5357 11.2289ZM11.6686 11.552C11.6686 11.5918 11.6613 11.6502 11.6345 11.7159C11.6075 11.7821 11.5699 11.8329 11.5357 11.8671L10.1215 10.4529C9.82207 10.7523 9.66863 11.1396 9.66863 11.552H11.6686ZM11.5357 11.8671C11.5088 11.894 11.4637 11.9292 11.3999 11.956C11.3356 11.983 11.2749 11.992 11.2286 11.992V9.992C10.8017 9.992 10.416 10.1584 10.1215 10.4529L11.5357 11.8671ZM11.2286 11.992C11.175 11.992 11.1067 11.9812 11.0358 11.9502C10.9656 11.9195 10.917 11.8796 10.8885 11.8497L12.3368 10.4703C12.0489 10.1681 11.6624 9.992 11.2286 9.992V11.992ZM10.9055 11.8671C10.8713 11.8329 10.8338 11.7821 10.8068 11.7159C10.78 11.6502 10.7726 11.5918 10.7726 11.552H12.7726C12.7726 11.1396 12.6192 10.7523 12.3197 10.4529L10.9055 11.8671ZM10.7726 11.552C10.7726 11.5049 10.7816 11.4424 10.8096 11.3754C10.8374 11.3086 10.8747 11.2598 10.9055 11.2289L12.3197 12.6431C12.6118 12.351 12.7726 11.9696 12.7726 11.552H10.7726ZM10.9055 11.2289C10.9364 11.198 10.9852 11.1608 11.052 11.1329C11.119 11.105 11.1815 11.096 11.2286 11.096V13.096C11.6462 13.096 12.0277 12.9352 12.3197 12.6431L10.9055 11.2289ZM12.6159 11.68L11.6829 11.32L11.3688 12.1341L12.1328 12.5556L12.6159 11.68ZM13.0079 10.664L13.4048 9.74614L12.4495 9.33306L12.0749 10.304L13.0079 10.664ZM13.5759 10.856L13.3468 11.8294L13.3468 11.8294L13.5759 10.856ZM14.5839 10.872L14.8363 11.8396L14.8501 11.836L14.8639 11.832L14.5839 10.872ZM14.8719 10.712L14.1371 10.0337L14.1371 10.0337L14.8719 10.712ZM14.8799 10.088L13.9312 10.4042L13.9359 10.4183L13.941 10.4323L14.8799 10.088ZM14.5839 9.464L13.708 9.94662L13.7123 9.95426L14.5839 9.464ZM13.9519 8.496L13.3988 7.66287L12.5322 8.2382L13.1412 9.08149L13.9519 8.496ZM14.9039 7.864L15.7208 7.28732L15.1604 6.49339L14.3508 7.03087L14.9039 7.864ZM15.5679 8.928L14.6874 9.40211L14.6905 9.40781L15.5679 8.928ZM15.9999 9.888L15.0529 10.2093L15.0564 10.2196L15.0601 10.2297L15.9999 9.888ZM15.9359 11.392L15.1235 10.8088L15.1207 10.8128L15.9359 11.392ZM15.2879 11.872L14.9106 10.9459L14.9045 10.9484L15.2879 11.872ZM13.7199 12.008L13.5823 12.9985L13.7199 12.008ZM13.1359 11.888L12.8682 12.8515L12.875 12.8534L13.1359 11.888ZM13.5488 12.04L13.9408 11.024L12.0749 10.304L11.6829 11.32L13.5488 12.04ZM12.611 11.5819C12.8544 11.6871 13.1 11.7713 13.3468 11.8294L13.8049 9.88258C13.689 9.85532 13.556 9.81153 13.4048 9.74614L12.611 11.5819ZM13.3468 11.8294C13.6012 11.8893 13.8593 11.92 14.1199 11.92V9.92C14.0177 9.92 13.9132 9.90807 13.8049 9.88258L13.3468 11.8294ZM14.1199 11.92C14.3556 11.92 14.6024 11.9006 14.8363 11.8396L14.3315 9.90438C14.32 9.90736 14.2575 9.92 14.1199 9.92V11.92ZM14.8639 11.832C15.0978 11.7638 15.3787 11.6372 15.6067 11.3903L14.1371 10.0337C14.237 9.92545 14.326 9.90556 14.3039 9.912L14.8639 11.832ZM15.6067 11.3903C15.8445 11.1327 15.9679 10.8065 15.9679 10.464H13.9679C13.9679 10.3988 13.9792 10.32 14.0113 10.237C14.0436 10.1537 14.0893 10.0854 14.1371 10.0337L15.6067 11.3903ZM15.9679 10.464C15.9679 10.1937 15.8888 9.93465 15.8188 9.74375L13.941 10.4323C13.9505 10.4581 13.9576 10.4793 13.9628 10.4962C13.968 10.5132 13.9709 10.5242 13.9722 10.5299C13.9736 10.5357 13.9727 10.5334 13.9715 10.5241C13.9702 10.5151 13.9679 10.4943 13.9679 10.464H15.9679ZM15.8286 9.77177C15.7456 9.52303 15.6114 9.2509 15.4555 8.97374L13.7123 9.95426C13.8444 10.1891 13.9074 10.333 13.9312 10.4042L15.8286 9.77177ZM15.4597 8.9814C15.2882 8.67011 15.0516 8.31075 14.7626 7.91051L13.1412 9.08149C13.4068 9.44925 13.5916 9.73522 13.708 9.9466L15.4597 8.9814ZM14.505 9.32913L15.457 8.69713L14.3508 7.03087L13.3988 7.66287L14.505 9.32913ZM14.0869 8.44068C14.3226 8.77453 14.522 9.09501 14.6874 9.4021L16.4483 8.4539C16.2404 8.06766 15.9972 7.6788 15.7208 7.28732L14.0869 8.44068ZM14.6905 9.40781C14.8556 9.70964 14.9738 9.97629 15.0529 10.2093L16.9469 9.5667C16.8232 9.20237 16.6535 8.82902 16.4452 8.44819L14.6905 9.40781ZM15.0601 10.2297C15.1414 10.4534 15.1599 10.5925 15.1599 10.664H17.1599C17.1599 10.2875 17.0717 9.90927 16.9397 9.54626L15.0601 10.2297ZM15.1599 10.664C15.1599 10.7504 15.1406 10.7851 15.1236 10.8088L16.7482 11.9752C17.0298 11.5829 17.1599 11.1322 17.1599 10.664H15.1599ZM15.1207 10.8128C15.1114 10.8259 15.0666 10.8823 14.9106 10.9459L15.6652 12.7981C16.0851 12.627 16.4724 12.3634 16.7511 11.9712L15.1207 10.8128ZM14.9045 10.9484C14.7785 11.0007 14.5687 11.048 14.2399 11.048V13.048C14.7431 13.048 15.2319 12.978 15.6713 12.7956L14.9045 10.9484ZM14.2399 11.048C14.141 11.048 14.0147 11.0394 13.8574 11.0175L13.5823 12.9985C13.809 13.03 14.0294 13.048 14.2399 13.048V11.048ZM13.8574 11.0175C13.7092 10.9969 13.5558 10.9656 13.3968 10.9226L12.875 12.8534C13.1107 12.9171 13.3465 12.9657 13.5823 12.9985L13.8574 11.0175ZM13.4035 10.9245C13.2771 10.8894 13.1774 10.8477 13.099 10.8044L12.1328 12.5556C12.3636 12.6829 12.6106 12.78 12.8682 12.8515L13.4035 10.9245Z" fill="white" mask="url(#path-1-inside-1_3466_1177)"/>
<circle cx="10.0003" cy="10.7698" r="8.73077" stroke="white"/>
</svg>
