<svg width="31" height="31" viewBox="0 0 31 31" fill="none" xmlns="http://www.w3.org/2000/svg">
<path d="M21.8018 8.3374C21.8018 11.7908 19.0052 14.5874 15.5518 14.5874C12.0984 14.5874 9.30176 11.7908 9.30176 8.3374C9.30176 4.88401 12.0984 2.0874 15.5518 2.0874C19.0052 2.0874 21.8018 4.88401 21.8018 8.3374ZM1.80176 27.0874C1.80176 26.2996 2.18646 25.5171 3.03929 24.73C3.90061 23.935 5.15343 23.2227 6.63925 22.6274C9.61291 21.4362 13.2049 20.8374 15.5518 20.8374C17.8986 20.8374 21.4906 21.4362 24.4643 22.6274C25.9501 23.2227 27.2029 23.935 28.0642 24.73C28.9171 25.5171 29.3018 26.2996 29.3018 27.0874V29.5874H1.80176V27.0874Z" fill="#FFC01D" stroke="black" stroke-width="2.5"/>
</svg>
