<svg width="681" height="474" viewBox="0 0 681 474" fill="none" xmlns="http://www.w3.org/2000/svg">
<path d="M478.654 184.456C478.654 236.037 416.978 277.852 340.896 277.852C264.813 277.852 203.137 236.037 203.137 184.456C203.137 132.875 264.813 91.0605 340.896 91.0605C416.978 91.0605 478.654 132.875 478.654 184.456ZM216.377 184.456C216.377 231.08 269.371 252.031 338.14 252.031C406.91 252.031 465.414 231.08 465.414 184.456C465.414 137.833 409.665 94.9063 340.896 94.9063C272.126 94.9063 216.377 137.833 216.377 184.456Z" fill="#290B46"/>
<path d="M563.877 207.223C563.877 291.365 462.215 359.575 336.809 359.575C211.402 359.575 109.74 291.365 109.74 207.223C109.74 123.081 211.402 54.8711 336.809 54.8711C462.215 54.8711 563.877 123.081 563.877 207.223ZM131.565 207.223C131.565 283.277 218.914 317.454 332.267 317.454C445.621 317.454 542.053 283.277 542.053 207.223C542.053 131.169 450.162 61.1444 336.809 61.1444C223.456 61.1444 131.565 131.169 131.565 207.223Z" fill="#250842"/>
<path d="M680.622 236.992C680.622 367.879 528.259 473.984 340.311 473.984C152.362 473.984 0 367.879 0 236.992C0 106.105 152.362 0 340.311 0C528.259 0 680.622 106.105 680.622 236.992ZM32.7085 236.992C32.7085 355.299 163.621 408.462 333.505 408.462C503.389 408.462 647.913 355.299 647.913 236.992C647.913 118.685 510.195 9.75849 340.311 9.75849C170.427 9.75849 32.7085 118.685 32.7085 236.992Z" fill="#290B46"/>
</svg>
