<svg width="76" height="41" viewBox="0 0 76 41" fill="none" xmlns="http://www.w3.org/2000/svg">
<path d="M65.4574 17.8581C65.4574 21.7912 54.5495 30.1365 38.0166 30.1365C21.4836 30.1365 10 21.0545 10 17.1214C10 13.1884 21.4836 10 38.0166 10C54.5495 10 65.4574 13.9251 65.4574 17.8581ZM15.8903 17.1214C15.8903 19.7481 26.9754 23.2606 38.0166 23.2606C49.0578 23.2606 59.4071 19.8934 59.4071 17.2668C59.4071 13.6334 49.0578 10.7993 38.0166 10.7993C26.9754 10.7993 14.7585 13.7061 15.8903 17.1214Z" fill="white"/>
<g filter="url(#filter0_f_2031_7823)">
<path d="M65.4574 17.8581C65.4574 21.7912 54.5495 30.1365 38.0166 30.1365C21.4836 30.1365 10 21.0545 10 17.1214C10 13.1884 21.4836 10 38.0166 10C54.5495 10 65.4574 13.9251 65.4574 17.8581ZM15.8903 17.1214C15.8903 19.7481 26.9754 23.2606 38.0166 23.2606C49.0578 23.2606 59.4071 19.8934 59.4071 17.2668C59.4071 13.6334 49.0578 10.7993 38.0166 10.7993C26.9754 10.7993 14.7585 13.7061 15.8903 17.1214Z" fill="white"/>
</g>
<defs>
<filter id="filter0_f_2031_7823" x="0" y="0" width="75.457" height="40.1367" filterUnits="userSpaceOnUse" color-interpolation-filters="sRGB">
<feFlood flood-opacity="0" result="BackgroundImageFix"/>
<feBlend mode="normal" in="SourceGraphic" in2="BackgroundImageFix" result="shape"/>
<feGaussianBlur stdDeviation="5" result="effect1_foregroundBlur_2031_7823"/>
</filter>
</defs>
</svg>
