<svg width="45" height="45" viewBox="0 0 146 146" fill="none" xmlns="http://www.w3.org/2000/svg">
<path d="M118.199 78.9615C118.442 77.0148 118.625 75.0682 118.625 72.9998C118.625 70.9315 118.442 68.9848 118.199 67.0382L131.035 57.0007C132.191 56.0882 132.495 54.4457 131.765 53.1073L119.598 32.059C118.868 30.7207 117.226 30.234 115.887 30.7207L100.74 36.804C97.5767 34.3707 94.17 32.3632 90.4592 30.8423L88.1475 14.7215C87.965 13.2615 86.6875 12.1665 85.1667 12.1665H60.8333C59.3125 12.1665 58.035 13.2615 57.8525 14.7215L55.5408 30.8423C51.83 32.3632 48.4233 34.4315 45.26 36.804L30.1125 30.7207C28.7133 30.1732 27.1317 30.7207 26.4017 32.059L14.235 53.1073C13.4442 54.4457 13.8092 56.0882 14.965 57.0007L27.8008 67.0382C27.5575 68.9848 27.375 70.9923 27.375 72.9998C27.375 75.0073 27.5575 77.0148 27.8008 78.9615L14.965 88.999C13.8092 89.9115 13.505 91.554 14.235 92.8923L26.4017 113.941C27.1317 115.279 28.7742 115.766 30.1125 115.279L45.26 109.196C48.4233 111.629 51.83 113.637 55.5408 115.157L57.8525 131.278C58.035 132.738 59.3125 133.833 60.8333 133.833H85.1667C86.6875 133.833 87.965 132.738 88.1475 131.278L90.4592 115.157C94.17 113.637 97.5767 111.568 100.74 109.196L115.887 115.279C117.287 115.827 118.868 115.279 119.598 113.941L131.765 92.8923C132.495 91.554 132.191 89.9115 131.035 88.999L118.199 78.9615V78.9615ZM73 94.2915C61.2592 94.2915 51.7083 84.7407 51.7083 72.9998C51.7083 61.259 61.2592 51.7082 73 51.7082C84.7408 51.7082 94.2917 61.259 94.2917 72.9998C94.2917 84.7407 84.7408 94.2915 73 94.2915Z" fill="#3A3449"/>
</svg>
